{
	"asset":{
		"generator":"Khronos glTF Blender I/O v4.1.63",
		"version":"2.0"
	},
	"extensionsUsed":[
		"KHR_materials_clearcoat"
	],
	"scene":0,
	"scenes":[
		{
			"name":"Scene",
			"nodes":[
				0,
				1,
				2,
				3,
				4
			]
		}
	],
	"nodes":[
		{
			"mesh":0,
			"name":"Material2.083",
			"translation":[
				24.81780242919922,
				1.7738444805145264,
				-15.869138717651367
			]
		},
		{
			"mesh":1,
			"name":"Material3.006",
			"translation":[
				25.769983291625977,
				2.202329635620117,
				-16.045026779174805
			]
		},
		{
			"mesh":2,
			"name":"Material2.037",
			"translation":[
				25.48335075378418,
				1.820674180984497,
				-15.491106986999512
			]
		},
		{
			"mesh":3,
			"name":"Material2.253",
			"translation":[
				24.13128089904785,
				2.0833566188812256,
				-15.88043212890625
			]
		},
		{
			"name":"Material3.005",
			"translation":[
				25.20086097717285,
				3.6583263874053955,
				-15.641661643981934
			]
		}
	],
	"materials":[
		{
			"alphaMode":"BLEND",
			"extensions":{
				"KHR_materials_clearcoat":{
					"clearcoatFactor":1,
					"clearcoatRoughnessFactor":0.03999999910593033
				}
			},
			"name":"24_pool_water_texture_seamless",
			"pbrMetallicRoughness":{
				"baseColorFactor":[
					1,
					1,
					1,
					0.6000000238418579
				],
				"baseColorTexture":{
					"index":0
				},
				"metallicFactor":0.800000011920929,
				"roughnessFactor":0.4000000059604645
			}
		},
		{
			"name":"Fan_Palm_leaf",
			"pbrMetallicRoughness":{
				"baseColorTexture":{
					"index":1
				},
				"metallicFactor":0,
				"roughnessFactor":0.6000000238418579
			}
		},
		{
			"name":"Polished_Concrete_Old",
			"pbrMetallicRoughness":{
				"baseColorTexture":{
					"index":2
				},
				"metallicFactor":0,
				"roughnessFactor":0.6000000238418579
			}
		},
		{
			"name":"Color_F19",
			"pbrMetallicRoughness":{
				"baseColorFactor":[
					0.3176470100879669,
					0.4000000059604645,
					0.23921599984169006,
					1
				],
				"metallicFactor":0
			}
		}
	],
	"meshes":[
		{
			"name":"Material2.083",
			"primitives":[
				{
					"attributes":{
						"POSITION":0,
						"NORMAL":1,
						"TEXCOORD_0":2
					},
					"indices":3,
					"material":0
				}
			]
		},
		{
			"name":"Material3.006",
			"primitives":[
				{
					"attributes":{
						"POSITION":4,
						"NORMAL":5,
						"TEXCOORD_0":6
					},
					"indices":7,
					"material":1
				}
			]
		},
		{
			"name":"Material2.135",
			"primitives":[
				{
					"attributes":{
						"POSITION":8,
						"NORMAL":9,
						"TEXCOORD_0":10
					},
					"indices":11,
					"material":2
				}
			]
		},
		{
			"name":"Material2.276",
			"primitives":[
				{
					"attributes":{
						"POSITION":12,
						"NORMAL":13
					},
					"indices":14,
					"material":3
				}
			]
		}
	],
	"textures":[
		{
			"sampler":0,
			"source":0
		},
		{
			"sampler":0,
			"source":1
		},
		{
			"sampler":0,
			"source":2
		}
	],
	"images":[
		{
			"mimeType":"image/png",
			"name":"24_pool_water_texture_seamless_baseColor",
			"uri":"24_pool_water_texture_seamless_baseColor.png"
		},
		{
			"mimeType":"image/jpeg",
			"name":"Fan_Palm_leaf_baseColor",
			"uri":"Fan_Palm_leaf_baseColor.jpg"
		},
		{
			"mimeType":"image/jpeg",
			"name":"Polished_Concrete_Old_baseColor",
			"uri":"Polished_Concrete_Old_baseColor.jpg"
		}
	],
	"accessors":[
		{
			"bufferView":0,
			"componentType":5126,
			"count":16533,
			"max":[
				2.315737009048462,
				0.009897995740175247,
				1.897068977355957
			],
			"min":[
				-1.5609936714172363,
				-0.009274015203118324,
				-1.5825263261795044
			],
			"type":"VEC3"
		},
		{
			"bufferView":1,
			"componentType":5126,
			"count":16533,
			"type":"VEC3"
		},
		{
			"bufferView":2,
			"componentType":5126,
			"count":16533,
			"type":"VEC2"
		},
		{
			"bufferView":3,
			"componentType":5123,
			"count":51900,
			"type":"SCALAR"
		},
		{
			"bufferView":4,
			"componentType":5126,
			"count":3138,
			"max":[
				0.7972594499588013,
				0.7693754434585571,
				0.9241560697555542
			],
			"min":[
				-0.762967050075531,
				-0.4861873984336853,
				-0.8688216805458069
			],
			"type":"VEC3"
		},
		{
			"bufferView":5,
			"componentType":5126,
			"count":3138,
			"type":"VEC3"
		},
		{
			"bufferView":6,
			"componentType":5126,
			"count":3138,
			"type":"VEC2"
		},
		{
			"bufferView":7,
			"componentType":5123,
			"count":8010,
			"type":"SCALAR"
		},
		{
			"bufferView":8,
			"componentType":5126,
			"count":761,
			"max":[
				0.9209324717521667,
				0.08920533955097198,
				0.9714582562446594
			],
			"min":[
				-1.492868423461914,
				-0.09179913997650146,
				-0.9279249906539917
			],
			"type":"VEC3"
		},
		{
			"bufferView":9,
			"componentType":5126,
			"count":761,
			"type":"VEC3"
		},
		{
			"bufferView":10,
			"componentType":5126,
			"count":761,
			"type":"VEC2"
		},
		{
			"bufferView":11,
			"componentType":5123,
			"count":1131,
			"type":"SCALAR"
		},
		{
			"bufferView":12,
			"componentType":5126,
			"count":4214,
			"max":[
				0.23404981195926666,
				0.2630887031555176,
				1.4097429513931274
			],
			"min":[
				-0.20940440893173218,
				-0.2135257124900818,
				-1.3738718032836914
			],
			"type":"VEC3"
		},
		{
			"bufferView":13,
			"componentType":5126,
			"count":4214,
			"type":"VEC3"
		},
		{
			"bufferView":14,
			"componentType":5123,
			"count":15264,
			"type":"SCALAR"
		}
	],
	"bufferViews":[
		{
			"buffer":0,
			"byteLength":198396,
			"byteOffset":0,
			"target":34962
		},
		{
			"buffer":0,
			"byteLength":198396,
			"byteOffset":198396,
			"target":34962
		},
		{
			"buffer":0,
			"byteLength":132264,
			"byteOffset":396792,
			"target":34962
		},
		{
			"buffer":0,
			"byteLength":103800,
			"byteOffset":529056,
			"target":34963
		},
		{
			"buffer":0,
			"byteLength":37656,
			"byteOffset":632856,
			"target":34962
		},
		{
			"buffer":0,
			"byteLength":37656,
			"byteOffset":670512,
			"target":34962
		},
		{
			"buffer":0,
			"byteLength":25104,
			"byteOffset":708168,
			"target":34962
		},
		{
			"buffer":0,
			"byteLength":16020,
			"byteOffset":733272,
			"target":34963
		},
		{
			"buffer":0,
			"byteLength":9132,
			"byteOffset":749292,
			"target":34962
		},
		{
			"buffer":0,
			"byteLength":9132,
			"byteOffset":758424,
			"target":34962
		},
		{
			"buffer":0,
			"byteLength":6088,
			"byteOffset":767556,
			"target":34962
		},
		{
			"buffer":0,
			"byteLength":2262,
			"byteOffset":773644,
			"target":34963
		},
		{
			"buffer":0,
			"byteLength":50568,
			"byteOffset":775908,
			"target":34962
		},
		{
			"buffer":0,
			"byteLength":50568,
			"byteOffset":826476,
			"target":34962
		},
		{
			"buffer":0,
			"byteLength":30528,
			"byteOffset":877044,
			"target":34963
		}
	],
	"samplers":[
		{
			"magFilter":9729,
			"minFilter":9987
		}
	],
	"buffers":[
		{
			"byteLength":907572,
			"uri":"h_stairs.bin"
		}
	]
}
