{
	"asset":{
		"generator":"Khronos glTF Blender I/O v4.0.44",
		"version":"2.0"
	},
	"extensionsUsed":[
		"KHR_materials_specular"
	],
	"scene":0,
	"scenes":[
		{
			"name":"Scene",
			"nodes":[
				0,
				1,
				2,
				3,
				4,
				5,
				6
			]
		}
	],
	"nodes":[
		{
			"mesh":0,
			"name":"Material3.002",
			"rotation":[
				-0.7071070075035095,
				0,
				0,
				0.7071065902709961
			],
			"scale":[
				0.0211471077054739,
				0.02114710956811905,
				0.02114710956811905
			],
			"translation":[
				25.4532413482666,
				3.296916961669922,
				-15.60067081451416
			]
		},
		{
			"mesh":1,
			"name":"Material2.275",
			"rotation":[
				-0.7071070075035095,
				0,
				0,
				0.7071065902709961
			],
			"scale":[
				0.0211471077054739,
				0.02114710956811905,
				0.02114710956811905
			],
			"translation":[
				25.26706886291504,
				3.9742021560668945,
				-15.739580154418945
			]
		},
		{
			"mesh":2,
			"name":"Material3.004",
			"rotation":[
				-0.7071070075035095,
				0,
				0,
				0.7071065902709961
			],
			"scale":[
				0.0211471077054739,
				0.02114710956811905,
				0.02114710956811905
			],
			"translation":[
				24.863489151000977,
				4.004701137542725,
				-15.6375732421875
			]
		},
		{
			"mesh":3,
			"name":"Material2.080",
			"rotation":[
				-0.7071070075035095,
				0,
				0,
				0.7071065902709961
			],
			"scale":[
				0.0211471077054739,
				0.02114710956811905,
				0.02114710956811905
			],
			"translation":[
				24.385210037231445,
				5.305304527282715,
				-16.85540771484375
			]
		},
		{
			"mesh":4,
			"name":"Material3.005",
			"rotation":[
				-0.7071070075035095,
				0,
				0,
				0.7071065902709961
			],
			"scale":[
				0.0211471077054739,
				0.02114710956811905,
				0.02114710956811905
			],
			"translation":[
				24.375547409057617,
				5.304990291595459,
				-14.994532585144043
			]
		},
		{
			"mesh":5,
			"name":"Material2.279",
			"rotation":[
				-0.7071070075035095,
				0,
				0,
				0.7071065902709961
			],
			"scale":[
				0.0211471077054739,
				0.02114710956811905,
				0.02114710956811905
			],
			"translation":[
				20.78685760498047,
				4.703500747680664,
				-13.925820350646973
			]
		},
		{
			"mesh":6,
			"name":"Material2.102",
			"rotation":[
				-0.7071070075035095,
				0,
				0,
				0.7071065902709961
			],
			"scale":[
				0.0211471077054739,
				0.02114710956811905,
				0.02114710956811905
			],
			"translation":[
				23.309345245361328,
				4.510839462280273,
				-14.612970352172852
			]
		}
	],
	"materials":[
		{
			"name":"material_3_3",
			"pbrMetallicRoughness":{
				"baseColorTexture":{
					"index":0
				},
				"metallicFactor":0,
				"roughnessFactor":0.6000000238418579
			}
		},
		{
			"extensions":{
				"KHR_materials_specular":{
					"specularTexture":{
						"index":1
					}
				}
			},
			"name":"Oak_2",
			"pbrMetallicRoughness":{
				"baseColorTexture":{
					"index":2
				},
				"metallicFactor":0,
				"roughnessFactor":0.6000000238418579
			}
		},
		{
			"extensions":{
				"KHR_materials_specular":{
					"specularTexture":{
						"index":3
					}
				}
			},
			"name":"material_12",
			"pbrMetallicRoughness":{
				"baseColorTexture":{
					"index":4
				},
				"metallicFactor":0,
				"roughnessFactor":0.6000000238418579
			}
		},
		{
			"name":"material_3",
			"pbrMetallicRoughness":{
				"baseColorTexture":{
					"index":5
				},
				"roughnessFactor":0.25
			}
		},
		{
			"name":"Wood-cherry",
			"pbrMetallicRoughness":{
				"baseColorTexture":{
					"index":6
				},
				"metallicFactor":0,
				"roughnessFactor":0.6000000238418579
			}
		},
		{
			"name":"Color_F19",
			"pbrMetallicRoughness":{
				"baseColorFactor":[
					0.3176470100879669,
					0.4000000059604645,
					0.23921599984169006,
					1
				],
				"metallicFactor":0
			}
		},
		{
			"extensions":{
				"KHR_materials_specular":{
					"specularTexture":{
						"index":7
					}
				}
			},
			"name":"material",
			"pbrMetallicRoughness":{
				"metallicFactor":0,
				"roughnessFactor":0.6000000238418579
			}
		},
		{
			"name":"Grass",
			"pbrMetallicRoughness":{
				"baseColorTexture":{
					"index":8
				},
				"metallicFactor":0,
				"roughnessFactor":0.6000000238418579
			}
		}
	],
	"meshes":[
		{
			"name":"Material3.002",
			"primitives":[
				{
					"attributes":{
						"POSITION":0,
						"NORMAL":1,
						"TEXCOORD_0":2
					},
					"indices":3,
					"material":0
				}
			]
		},
		{
			"name":"Material2.335",
			"primitives":[
				{
					"attributes":{
						"POSITION":4,
						"NORMAL":5,
						"TEXCOORD_0":6
					},
					"indices":7,
					"material":1
				},
				{
					"attributes":{
						"POSITION":8,
						"NORMAL":9,
						"TEXCOORD_0":10
					},
					"indices":11,
					"material":2
				}
			]
		},
		{
			"name":"Material3.004",
			"primitives":[
				{
					"attributes":{
						"POSITION":12,
						"NORMAL":13,
						"TEXCOORD_0":14
					},
					"indices":15,
					"material":3
				}
			]
		},
		{
			"name":"Material2.080",
			"primitives":[
				{
					"attributes":{
						"POSITION":16,
						"NORMAL":17,
						"TEXCOORD_0":18
					},
					"indices":19,
					"material":1
				}
			]
		},
		{
			"name":"Material3.005",
			"primitives":[
				{
					"attributes":{
						"POSITION":20,
						"NORMAL":21,
						"TEXCOORD_0":22
					},
					"indices":23,
					"material":4
				}
			]
		},
		{
			"name":"Material2.357",
			"primitives":[
				{
					"attributes":{
						"POSITION":24,
						"NORMAL":25,
						"TEXCOORD_0":26
					},
					"indices":27,
					"material":5
				},
				{
					"attributes":{
						"POSITION":28,
						"NORMAL":29,
						"TEXCOORD_0":30
					},
					"indices":31,
					"material":6
				},
				{
					"attributes":{
						"POSITION":32,
						"NORMAL":33,
						"TEXCOORD_0":34
					},
					"indices":35,
					"material":7
				}
			]
		},
		{
			"name":"Material2.392",
			"primitives":[
				{
					"attributes":{
						"POSITION":36,
						"NORMAL":37,
						"TEXCOORD_0":38
					},
					"indices":39,
					"material":6
				}
			]
		}
	],
	"textures":[
		{
			"sampler":0,
			"source":0
		},
		{
			"sampler":0,
			"source":1
		},
		{
			"sampler":0,
			"source":2
		},
		{
			"sampler":0,
			"source":3
		},
		{
			"sampler":0,
			"source":4
		},
		{
			"sampler":0,
			"source":5
		},
		{
			"sampler":0,
			"source":6
		},
		{
			"sampler":0,
			"source":7
		},
		{
			"sampler":0,
			"source":8
		}
	],
	"images":[
		{
			"mimeType":"image/jpeg",
			"name":"material_3_3_baseColor",
			"uri":"material_3_3_baseColor.jpg"
		},
		{
			"mimeType":"image/png",
			"name":"Oak_2_specularf0",
			"uri":"Oak_2_specularf0.png"
		},
		{
			"mimeType":"image/jpeg",
			"name":"Oak_2_baseColor",
			"uri":"Oak_2_baseColor.jpg"
		},
		{
			"mimeType":"image/png",
			"name":"Pale_lancelot_oak_PBR_specularf0",
			"uri":"Pale_lancelot_oak_PBR_specularf0.png"
		},
		{
			"mimeType":"image/jpeg",
			"name":"material_12_baseColor",
			"uri":"material_12_baseColor.jpg"
		},
		{
			"mimeType":"image/jpeg",
			"name":"material_3_baseColor",
			"uri":"material_3_baseColor.jpg"
		},
		{
			"mimeType":"image/jpeg",
			"name":"Wood-cherry_baseColor",
			"uri":"Wood-cherry_baseColor.jpg"
		},
		{
			"mimeType":"image/png",
			"name":"material_specularf0",
			"uri":"material_specularf0.png"
		},
		{
			"mimeType":"image/jpeg",
			"name":"Grass_baseColor",
			"uri":"Grass_baseColor.jpg"
		}
	],
	"accessors":[
		{
			"bufferView":0,
			"componentType":5126,
			"count":33996,
			"max":[
				64.03042602539062,
				91.34333038330078,
				95.31048583984375
			],
			"min":[
				-91.20675659179688,
				-66.41600799560547,
				-71.32479858398438
			],
			"type":"VEC3"
		},
		{
			"bufferView":1,
			"componentType":5126,
			"count":33996,
			"type":"VEC3"
		},
		{
			"bufferView":2,
			"componentType":5126,
			"count":33996,
			"type":"VEC2"
		},
		{
			"bufferView":3,
			"componentType":5123,
			"count":62736,
			"type":"SCALAR"
		},
		{
			"bufferView":4,
			"componentType":5126,
			"count":4638,
			"max":[
				31.132780075073242,
				53.735321044921875,
				63.76103591918945
			],
			"min":[
				-81.58816528320312,
				-42.666717529296875,
				-107.88481903076172
			],
			"type":"VEC3"
		},
		{
			"bufferView":5,
			"componentType":5126,
			"count":4638,
			"type":"VEC3"
		},
		{
			"bufferView":6,
			"componentType":5126,
			"count":4638,
			"type":"VEC2"
		},
		{
			"bufferView":7,
			"componentType":5123,
			"count":6348,
			"type":"SCALAR"
		},
		{
			"bufferView":8,
			"componentType":5126,
			"count":5448,
			"max":[
				74.5268783569336,
				86.17974853515625,
				63.7609748840332
			],
			"min":[
				-137.95248413085938,
				-90.74853515625,
				-98.81945037841797
			],
			"type":"VEC3"
		},
		{
			"bufferView":9,
			"componentType":5126,
			"count":5448,
			"type":"VEC3"
		},
		{
			"bufferView":10,
			"componentType":5126,
			"count":5448,
			"type":"VEC2"
		},
		{
			"bufferView":11,
			"componentType":5123,
			"count":8112,
			"type":"SCALAR"
		},
		{
			"bufferView":12,
			"componentType":5126,
			"count":24096,
			"max":[
				92.5335922241211,
				89.59831237792969,
				61.840938568115234
			],
			"min":[
				-95.2522964477539,
				-92.69892883300781,
				-92.81465148925781
			],
			"type":"VEC3"
		},
		{
			"bufferView":13,
			"componentType":5126,
			"count":24096,
			"type":"VEC3"
		},
		{
			"bufferView":14,
			"componentType":5126,
			"count":24096,
			"type":"VEC2"
		},
		{
			"bufferView":15,
			"componentType":5123,
			"count":47805,
			"type":"SCALAR"
		},
		{
			"bufferView":16,
			"componentType":5126,
			"count":797,
			"max":[
				42.320098876953125,
				33.69775390625,
				0.8167116641998291
			],
			"min":[
				-72.63558959960938,
				-148.765380859375,
				-0.8736875057220459
			],
			"type":"VEC3"
		},
		{
			"bufferView":17,
			"componentType":5126,
			"count":797,
			"type":"VEC3"
		},
		{
			"bufferView":18,
			"componentType":5126,
			"count":797,
			"type":"VEC2"
		},
		{
			"bufferView":19,
			"componentType":5123,
			"count":1269,
			"type":"SCALAR"
		},
		{
			"bufferView":20,
			"componentType":5126,
			"count":8,
			"max":[
				1.964141845703125,
				41.124298095703125,
				0.8309860229492188
			],
			"min":[
				-1.057586669921875,
				-41.124298095703125,
				-0.6799087524414062
			],
			"type":"VEC3"
		},
		{
			"bufferView":21,
			"componentType":5126,
			"count":8,
			"type":"VEC3"
		},
		{
			"bufferView":22,
			"componentType":5126,
			"count":8,
			"type":"VEC2"
		},
		{
			"bufferView":23,
			"componentType":5123,
			"count":12,
			"type":"SCALAR"
		},
		{
			"bufferView":24,
			"componentType":5126,
			"count":3381,
			"max":[
				84.70939636230469,
				38.3978385925293,
				52.02573776245117
			],
			"min":[
				30.734722137451172,
				-14.153002738952637,
				0.2680320739746094
			],
			"type":"VEC3"
		},
		{
			"bufferView":25,
			"componentType":5126,
			"count":3381,
			"type":"VEC3"
		},
		{
			"bufferView":26,
			"componentType":5126,
			"count":3381,
			"type":"VEC2"
		},
		{
			"bufferView":27,
			"componentType":5123,
			"count":8970,
			"type":"SCALAR"
		},
		{
			"bufferView":28,
			"componentType":5126,
			"count":6117,
			"max":[
				68.16874694824219,
				22.980846405029297,
				47.29044723510742
			],
			"min":[
				47.29032516479492,
				2.1024904251098633,
				-9.819828033447266
			],
			"type":"VEC3"
		},
		{
			"bufferView":29,
			"componentType":5126,
			"count":6117,
			"type":"VEC3"
		},
		{
			"bufferView":30,
			"componentType":5126,
			"count":6117,
			"type":"VEC2"
		},
		{
			"bufferView":31,
			"componentType":5123,
			"count":35955,
			"type":"SCALAR"
		},
		{
			"bufferView":32,
			"componentType":5126,
			"count":6933,
			"max":[
				64.54692077636719,
				19.622081756591797,
				33.01585006713867
			],
			"min":[
				52.88822555541992,
				8.510205268859863,
				0.18171310424804688
			],
			"type":"VEC3"
		},
		{
			"bufferView":33,
			"componentType":5126,
			"count":6933,
			"type":"VEC3"
		},
		{
			"bufferView":34,
			"componentType":5126,
			"count":6933,
			"type":"VEC2"
		},
		{
			"bufferView":35,
			"componentType":5123,
			"count":10440,
			"type":"SCALAR"
		},
		{
			"bufferView":36,
			"componentType":5126,
			"count":69,
			"max":[
				42.23448944091797,
				31.89211654663086,
				0
			],
			"min":[
				-42.23450469970703,
				-31.89212417602539,
				0
			],
			"type":"VEC3"
		},
		{
			"bufferView":37,
			"componentType":5126,
			"count":69,
			"type":"VEC3"
		},
		{
			"bufferView":38,
			"componentType":5126,
			"count":69,
			"type":"VEC2"
		},
		{
			"bufferView":39,
			"componentType":5123,
			"count":150,
			"type":"SCALAR"
		}
	],
	"bufferViews":[
		{
			"buffer":0,
			"byteLength":407952,
			"byteOffset":0,
			"target":34962
		},
		{
			"buffer":0,
			"byteLength":407952,
			"byteOffset":407952,
			"target":34962
		},
		{
			"buffer":0,
			"byteLength":271968,
			"byteOffset":815904,
			"target":34962
		},
		{
			"buffer":0,
			"byteLength":125472,
			"byteOffset":1087872,
			"target":34963
		},
		{
			"buffer":0,
			"byteLength":55656,
			"byteOffset":1213344,
			"target":34962
		},
		{
			"buffer":0,
			"byteLength":55656,
			"byteOffset":1269000,
			"target":34962
		},
		{
			"buffer":0,
			"byteLength":37104,
			"byteOffset":1324656,
			"target":34962
		},
		{
			"buffer":0,
			"byteLength":12696,
			"byteOffset":1361760,
			"target":34963
		},
		{
			"buffer":0,
			"byteLength":65376,
			"byteOffset":1374456,
			"target":34962
		},
		{
			"buffer":0,
			"byteLength":65376,
			"byteOffset":1439832,
			"target":34962
		},
		{
			"buffer":0,
			"byteLength":43584,
			"byteOffset":1505208,
			"target":34962
		},
		{
			"buffer":0,
			"byteLength":16224,
			"byteOffset":1548792,
			"target":34963
		},
		{
			"buffer":0,
			"byteLength":289152,
			"byteOffset":1565016,
			"target":34962
		},
		{
			"buffer":0,
			"byteLength":289152,
			"byteOffset":1854168,
			"target":34962
		},
		{
			"buffer":0,
			"byteLength":192768,
			"byteOffset":2143320,
			"target":34962
		},
		{
			"buffer":0,
			"byteLength":95610,
			"byteOffset":2336088,
			"target":34963
		},
		{
			"buffer":0,
			"byteLength":9564,
			"byteOffset":2431700,
			"target":34962
		},
		{
			"buffer":0,
			"byteLength":9564,
			"byteOffset":2441264,
			"target":34962
		},
		{
			"buffer":0,
			"byteLength":6376,
			"byteOffset":2450828,
			"target":34962
		},
		{
			"buffer":0,
			"byteLength":2538,
			"byteOffset":2457204,
			"target":34963
		},
		{
			"buffer":0,
			"byteLength":96,
			"byteOffset":2459744,
			"target":34962
		},
		{
			"buffer":0,
			"byteLength":96,
			"byteOffset":2459840,
			"target":34962
		},
		{
			"buffer":0,
			"byteLength":64,
			"byteOffset":2459936,
			"target":34962
		},
		{
			"buffer":0,
			"byteLength":24,
			"byteOffset":2460000,
			"target":34963
		},
		{
			"buffer":0,
			"byteLength":40572,
			"byteOffset":2460024,
			"target":34962
		},
		{
			"buffer":0,
			"byteLength":40572,
			"byteOffset":2500596,
			"target":34962
		},
		{
			"buffer":0,
			"byteLength":27048,
			"byteOffset":2541168,
			"target":34962
		},
		{
			"buffer":0,
			"byteLength":17940,
			"byteOffset":2568216,
			"target":34963
		},
		{
			"buffer":0,
			"byteLength":73404,
			"byteOffset":2586156,
			"target":34962
		},
		{
			"buffer":0,
			"byteLength":73404,
			"byteOffset":2659560,
			"target":34962
		},
		{
			"buffer":0,
			"byteLength":48936,
			"byteOffset":2732964,
			"target":34962
		},
		{
			"buffer":0,
			"byteLength":71910,
			"byteOffset":2781900,
			"target":34963
		},
		{
			"buffer":0,
			"byteLength":83196,
			"byteOffset":2853812,
			"target":34962
		},
		{
			"buffer":0,
			"byteLength":83196,
			"byteOffset":2937008,
			"target":34962
		},
		{
			"buffer":0,
			"byteLength":55464,
			"byteOffset":3020204,
			"target":34962
		},
		{
			"buffer":0,
			"byteLength":20880,
			"byteOffset":3075668,
			"target":34963
		},
		{
			"buffer":0,
			"byteLength":828,
			"byteOffset":3096548,
			"target":34962
		},
		{
			"buffer":0,
			"byteLength":828,
			"byteOffset":3097376,
			"target":34962
		},
		{
			"buffer":0,
			"byteLength":552,
			"byteOffset":3098204,
			"target":34962
		},
		{
			"buffer":0,
			"byteLength":300,
			"byteOffset":3098756,
			"target":34963
		}
	],
	"samplers":[
		{
			"magFilter":9729,
			"minFilter":9987
		}
	],
	"buffers":[
		{
			"byteLength":3099056,
			"uri":"Stairs.bin"
		}
	]
}
