{
	"asset":{
		"generator":"Khronos glTF Blender I/O v4.0.44",
		"version":"2.0"
	},
	"extensionsUsed":[
		"KHR_materials_specular"
	],
	"scene":0,
	"scenes":[
		{
			"name":"Scene",
			"nodes":[
				0,
				1
			]
		}
	],
	"nodes":[
		{
			"mesh":0,
			"name":"P-Chair",
			"translation":[
				24.42811393737793,
				2.09611177444458,
				-9.85165786743164
			]
		},
		{
			"mesh":1,
			"name":"P-Lounger ",
			"translation":[
				29.845155715942383,
				2.1330196857452393,
				-9.627181053161621
			]
		}
	],
	"materials":[
		{
			"extensions":{
				"KHR_materials_specular":{
					"specularTexture":{
						"index":0
					}
				}
			},
			"name":"material",
			"pbrMetallicRoughness":{
				"metallicFactor":0,
				"roughnessFactor":0.6000000238418579
			}
		},
		{
			"name":"Color_008",
			"pbrMetallicRoughness":{
				"baseColorFactor":[
					0.11764699965715408,
					0.11764699965715408,
					0.11764699965715408,
					1
				],
				"metallicFactor":0,
				"roughnessFactor":0.6000000238418579
			}
		},
		{
			"name":"Texture_2.jpeg",
			"pbrMetallicRoughness":{
				"baseColorTexture":{
					"index":1
				},
				"metallicFactor":0,
				"roughnessFactor":0.6000000238418579
			}
		},
		{
			"alphaMode":"BLEND",
			"name":"Translucent_Glass_Gray",
			"pbrMetallicRoughness":{
				"baseColorFactor":[
					0.012048745527863503,
					0.013705061748623848,
					0.01214696280658245,
					0.9683908224105835
				],
				"metallicFactor":0,
				"roughnessFactor":0.20000000298023224
			}
		},
		{
			"name":"1_16",
			"pbrMetallicRoughness":{
				"baseColorTexture":{
					"index":2
				},
				"metallicFactor":0,
				"roughnessFactor":0.6000000238418579
			}
		},
		{
			"name":"Plain_Natural_Blackout",
			"pbrMetallicRoughness":{
				"baseColorTexture":{
					"index":3
				},
				"metallicFactor":0,
				"roughnessFactor":0.6000000238418579
			}
		}
	],
	"meshes":[
		{
			"name":"Material2.033",
			"primitives":[
				{
					"attributes":{
						"POSITION":0,
						"NORMAL":1,
						"TEXCOORD_0":2
					},
					"indices":3,
					"material":0
				},
				{
					"attributes":{
						"POSITION":4,
						"NORMAL":5,
						"TEXCOORD_0":6
					},
					"indices":7,
					"material":1
				},
				{
					"attributes":{
						"POSITION":8,
						"NORMAL":9,
						"TEXCOORD_0":10
					},
					"indices":11,
					"material":2
				},
				{
					"attributes":{
						"POSITION":12,
						"NORMAL":13,
						"TEXCOORD_0":14
					},
					"indices":15,
					"material":3
				}
			]
		},
		{
			"name":"Material2.043",
			"primitives":[
				{
					"attributes":{
						"POSITION":16,
						"NORMAL":17,
						"TEXCOORD_0":18
					},
					"indices":19,
					"material":0
				},
				{
					"attributes":{
						"POSITION":20,
						"NORMAL":21,
						"TEXCOORD_0":22
					},
					"indices":23,
					"material":4
				},
				{
					"attributes":{
						"POSITION":24,
						"NORMAL":25,
						"TEXCOORD_0":26
					},
					"indices":27,
					"material":5
				}
			]
		}
	],
	"textures":[
		{
			"sampler":0,
			"source":0
		},
		{
			"sampler":0,
			"source":1
		},
		{
			"sampler":0,
			"source":2
		},
		{
			"sampler":0,
			"source":3
		}
	],
	"images":[
		{
			"mimeType":"image/png",
			"name":"material_specularf0",
			"uri":"material_specularf0.png"
		},
		{
			"mimeType":"image/jpeg",
			"name":"Texture_2.jpeg_baseColor",
			"uri":"Texture_2_jpeg_baseColor.jpg"
		},
		{
			"mimeType":"image/jpeg",
			"name":"1_16_baseColor",
			"uri":"1_16_baseColor.jpg"
		},
		{
			"mimeType":"image/jpeg",
			"name":"Plain_Natural_Blackout_baseColor",
			"uri":"Plain_Natural_Blackout_baseColor.jpg"
		}
	],
	"accessors":[
		{
			"bufferView":0,
			"componentType":5126,
			"count":3662,
			"max":[
				1.5519795417785645,
				0.5413660407066345,
				1.2785056829452515
			],
			"min":[
				-1.6544994115829468,
				-0.2644743323326111,
				-1.160022258758545
			],
			"type":"VEC3"
		},
		{
			"bufferView":1,
			"componentType":5126,
			"count":3662,
			"type":"VEC3"
		},
		{
			"bufferView":2,
			"componentType":5126,
			"count":3662,
			"type":"VEC2"
		},
		{
			"bufferView":3,
			"componentType":5123,
			"count":13851,
			"type":"SCALAR"
		},
		{
			"bufferView":4,
			"componentType":5126,
			"count":10151,
			"max":[
				1.5682650804519653,
				0.5413661599159241,
				1.2955360412597656
			],
			"min":[
				-1.6375885009765625,
				-0.26447445154190063,
				-1.1501342058181763
			],
			"type":"VEC3"
		},
		{
			"bufferView":5,
			"componentType":5126,
			"count":10151,
			"type":"VEC3"
		},
		{
			"bufferView":6,
			"componentType":5126,
			"count":10151,
			"type":"VEC2"
		},
		{
			"bufferView":7,
			"componentType":5123,
			"count":43404,
			"type":"SCALAR"
		},
		{
			"bufferView":8,
			"componentType":5126,
			"count":1794,
			"max":[
				0.2973176836967468,
				0.06980127096176147,
				0.005206353031098843
			],
			"min":[
				-0.3179490566253662,
				-0.26306840777397156,
				-0.33216387033462524
			],
			"type":"VEC3"
		},
		{
			"bufferView":9,
			"componentType":5126,
			"count":1794,
			"type":"VEC3"
		},
		{
			"bufferView":10,
			"componentType":5126,
			"count":1794,
			"type":"VEC2"
		},
		{
			"bufferView":11,
			"componentType":5123,
			"count":3648,
			"type":"SCALAR"
		},
		{
			"bufferView":12,
			"componentType":5126,
			"count":216,
			"max":[
				0.4267043471336365,
				0.08740458637475967,
				0.12980248034000397
			],
			"min":[
				-0.44729694724082947,
				0.06971592456102371,
				-0.961143970489502
			],
			"type":"VEC3"
		},
		{
			"bufferView":13,
			"componentType":5126,
			"count":216,
			"type":"VEC3"
		},
		{
			"bufferView":14,
			"componentType":5126,
			"count":216,
			"type":"VEC2"
		},
		{
			"bufferView":15,
			"componentType":5123,
			"count":636,
			"type":"SCALAR"
		},
		{
			"bufferView":16,
			"componentType":5126,
			"count":5136,
			"max":[
				2.024510622024536,
				0.11823084205389023,
				1.0193181037902832
			],
			"min":[
				-1.8122644424438477,
				-0.30138203501701355,
				-0.9906894564628601
			],
			"type":"VEC3"
		},
		{
			"bufferView":17,
			"componentType":5126,
			"count":5136,
			"type":"VEC3"
		},
		{
			"bufferView":18,
			"componentType":5126,
			"count":5136,
			"type":"VEC2"
		},
		{
			"bufferView":19,
			"componentType":5123,
			"count":10032,
			"type":"SCALAR"
		},
		{
			"bufferView":20,
			"componentType":5126,
			"count":696,
			"max":[
				1.9782475233078003,
				0.27149322628974915,
				-0.033297181129455566
			],
			"min":[
				-1.4135103225708008,
				-0.11782528460025787,
				-0.9451545476913452
			],
			"type":"VEC3"
		},
		{
			"bufferView":21,
			"componentType":5126,
			"count":696,
			"type":"VEC3"
		},
		{
			"bufferView":22,
			"componentType":5126,
			"count":696,
			"type":"VEC2"
		},
		{
			"bufferView":23,
			"componentType":5123,
			"count":1080,
			"type":"SCALAR"
		},
		{
			"bufferView":24,
			"componentType":5126,
			"count":6146,
			"max":[
				1.9506134986877441,
				0.32781827449798584,
				0.9777552485466003
			],
			"min":[
				-1.383841633796692,
				-0.08524081110954285,
				-0.8577663898468018
			],
			"type":"VEC3"
		},
		{
			"bufferView":25,
			"componentType":5126,
			"count":6146,
			"type":"VEC3"
		},
		{
			"bufferView":26,
			"componentType":5126,
			"count":6146,
			"type":"VEC2"
		},
		{
			"bufferView":27,
			"componentType":5123,
			"count":24360,
			"type":"SCALAR"
		}
	],
	"bufferViews":[
		{
			"buffer":0,
			"byteLength":43944,
			"byteOffset":0,
			"target":34962
		},
		{
			"buffer":0,
			"byteLength":43944,
			"byteOffset":43944,
			"target":34962
		},
		{
			"buffer":0,
			"byteLength":29296,
			"byteOffset":87888,
			"target":34962
		},
		{
			"buffer":0,
			"byteLength":27702,
			"byteOffset":117184,
			"target":34963
		},
		{
			"buffer":0,
			"byteLength":121812,
			"byteOffset":144888,
			"target":34962
		},
		{
			"buffer":0,
			"byteLength":121812,
			"byteOffset":266700,
			"target":34962
		},
		{
			"buffer":0,
			"byteLength":81208,
			"byteOffset":388512,
			"target":34962
		},
		{
			"buffer":0,
			"byteLength":86808,
			"byteOffset":469720,
			"target":34963
		},
		{
			"buffer":0,
			"byteLength":21528,
			"byteOffset":556528,
			"target":34962
		},
		{
			"buffer":0,
			"byteLength":21528,
			"byteOffset":578056,
			"target":34962
		},
		{
			"buffer":0,
			"byteLength":14352,
			"byteOffset":599584,
			"target":34962
		},
		{
			"buffer":0,
			"byteLength":7296,
			"byteOffset":613936,
			"target":34963
		},
		{
			"buffer":0,
			"byteLength":2592,
			"byteOffset":621232,
			"target":34962
		},
		{
			"buffer":0,
			"byteLength":2592,
			"byteOffset":623824,
			"target":34962
		},
		{
			"buffer":0,
			"byteLength":1728,
			"byteOffset":626416,
			"target":34962
		},
		{
			"buffer":0,
			"byteLength":1272,
			"byteOffset":628144,
			"target":34963
		},
		{
			"buffer":0,
			"byteLength":61632,
			"byteOffset":629416,
			"target":34962
		},
		{
			"buffer":0,
			"byteLength":61632,
			"byteOffset":691048,
			"target":34962
		},
		{
			"buffer":0,
			"byteLength":41088,
			"byteOffset":752680,
			"target":34962
		},
		{
			"buffer":0,
			"byteLength":20064,
			"byteOffset":793768,
			"target":34963
		},
		{
			"buffer":0,
			"byteLength":8352,
			"byteOffset":813832,
			"target":34962
		},
		{
			"buffer":0,
			"byteLength":8352,
			"byteOffset":822184,
			"target":34962
		},
		{
			"buffer":0,
			"byteLength":5568,
			"byteOffset":830536,
			"target":34962
		},
		{
			"buffer":0,
			"byteLength":2160,
			"byteOffset":836104,
			"target":34963
		},
		{
			"buffer":0,
			"byteLength":73752,
			"byteOffset":838264,
			"target":34962
		},
		{
			"buffer":0,
			"byteLength":73752,
			"byteOffset":912016,
			"target":34962
		},
		{
			"buffer":0,
			"byteLength":49168,
			"byteOffset":985768,
			"target":34962
		},
		{
			"buffer":0,
			"byteLength":48720,
			"byteOffset":1034936,
			"target":34963
		}
	],
	"samplers":[
		{
			"magFilter":9729,
			"minFilter":9987
		}
	],
	"buffers":[
		{
			"byteLength":1083656,
			"uri":"swimmingPool.bin"
		}
	]
}
