{
	"asset":{
		"generator":"Khronos glTF Blender I/O v4.0.44",
		"version":"2.0"
	},
	"extensionsUsed":[
		"KHR_materials_specular"
	],
	"scene":0,
	"scenes":[
		{
			"name":"Scene",
			"nodes":[
				0,
				1,
				2,
				3,
				4,
				5,
				6,
				7,
				8,
				9,
				10,
				11,
				12,
				13,
				14,
				15,
				16,
				17,
				18
			]
		}
	],
	"nodes":[
		{
			"mesh":0,
			"name":"Retopo_Material2.219",
			"translation":[
				16.38564682006836,
				5.194918155670166,
				-10.921602249145508
			]
		},
		{
			"mesh":1,
			"name":"Retopo_Material2.213",
			"translation":[
				16.54292106628418,
				5.402420997619629,
				-12.05510425567627
			]
		},
		{
			"name":"Material2.141",
			"translation":[
				16.73858642578125,
				5.2388834953308105,
				-12.501592636108398
			]
		},
		{
			"mesh":2,
			"name":"Material2.214",
			"translation":[
				16.63337516784668,
				5.25091028213501,
				-11.138697624206543
			]
		},
		{
			"mesh":3,
			"name":"Material2.215",
			"translation":[
				16.550920486450195,
				5.759644985198975,
				-11.132384300231934
			]
		},
		{
			"mesh":4,
			"name":"Material2.220",
			"translation":[
				16.542354583740234,
				6.857532978057861,
				-11.119738578796387
			]
		},
		{
			"mesh":5,
			"name":"Material2.223",
			"translation":[
				16.542354583740234,
				6.856914043426514,
				-11.119738578796387
			]
		},
		{
			"mesh":6,
			"name":"Material2.265",
			"translation":[
				16.54667854309082,
				4.788250923156738,
				-10.736431121826172
			]
		},
		{
			"mesh":7,
			"name":"Material2.269",
			"translation":[
				16.54667854309082,
				4.783995628356934,
				-10.736432075500488
			]
		},
		{
			"name":"Material2.190",
			"translation":[
				15.965582847595215,
				4.998508453369141,
				-12.60898208618164
			]
		},
		{
			"mesh":8,
			"name":"Material2.205",
			"translation":[
				15.946881294250488,
				5.195438385009766,
				-12.60617733001709
			]
		},
		{
			"mesh":9,
			"name":"Material2.210",
			"translation":[
				15.965582847595215,
				5.034447193145752,
				-12.738000869750977
			]
		},
		{
			"mesh":10,
			"name":"Material2.221",
			"translation":[
				16.542354583740234,
				6.854720592498779,
				-11.119738578796387
			]
		},
		{
			"mesh":11,
			"name":"Material2.403",
			"translation":[
				16.53769874572754,
				6.037381649017334,
				-12.273153305053711
			]
		},
		{
			"mesh":12,
			"name":"Material2.405",
			"translation":[
				16.499755859375,
				5.989040851593018,
				-12.362403869628906
			]
		},
		{
			"name":"Material2.416",
			"translation":[
				16.537696838378906,
				5.987854957580566,
				-12.291831970214844
			]
		},
		{
			"mesh":13,
			"name":"Material2.417",
			"translation":[
				16.606063842773438,
				8.005839347839355,
				-12.320838928222656
			]
		},
		{
			"mesh":14,
			"name":"Material2.419",
			"translation":[
				16.880855560302734,
				5.993779182434082,
				-14.121482849121094
			]
		},
		{
			"mesh":15,
			"name":"Material2.420",
			"translation":[
				17.051578521728516,
				6.584061622619629,
				-14.255617141723633
			]
		}
	],
	"materials":[
		{
			"extensions":{
				"KHR_materials_specular":{
					"specularTexture":{
						"index":0
					}
				}
			},
			"name":"material",
			"pbrMetallicRoughness":{
				"metallicFactor":0,
				"roughnessFactor":0.6000000238418579
			}
		},
		{
			"name":"Plain_Natural_Blackout",
			"pbrMetallicRoughness":{
				"baseColorTexture":{
					"index":1
				},
				"metallicFactor":0,
				"roughnessFactor":0.6000000238418579
			}
		},
		{
			"name":"material_47",
			"pbrMetallicRoughness":{
				"baseColorTexture":{
					"index":2
				},
				"metallicFactor":0,
				"roughnessFactor":0.6000000238418579
			}
		},
		{
			"alphaMode":"BLEND",
			"name":"Plain_Natural_Blackout_Sheer",
			"pbrMetallicRoughness":{
				"baseColorFactor":[
					1,
					1,
					1,
					0.699999988079071
				],
				"baseColorTexture":{
					"index":3
				},
				"metallicFactor":0,
				"roughnessFactor":0.6000000238418579
			}
		},
		{
			"name":"Camel___Ivory_Rug__Labyrinth__-_Jonathan_Adler",
			"pbrMetallicRoughness":{
				"baseColorTexture":{
					"index":4
				},
				"metallicFactor":0,
				"roughnessFactor":0.6000000238418579
			}
		},
		{
			"name":"Dense_Rattan",
			"pbrMetallicRoughness":{
				"baseColorTexture":{
					"index":5
				},
				"metallicFactor":0,
				"roughnessFactor":0.6000000238418579
			}
		},
		{
			"name":"Color_008",
			"pbrMetallicRoughness":{
				"baseColorFactor":[
					0.11764699965715408,
					0.11764699965715408,
					0.11764699965715408,
					1
				],
				"metallicFactor":0,
				"roughnessFactor":0.6000000238418579
			}
		},
		{
			"extensions":{
				"KHR_materials_specular":{
					"specularTexture":{
						"index":6
					}
				}
			},
			"name":"material_12",
			"pbrMetallicRoughness":{
				"baseColorTexture":{
					"index":7
				},
				"metallicFactor":0,
				"roughnessFactor":0.6000000238418579
			}
		},
		{
			"extensions":{
				"KHR_materials_specular":{
					"specularTexture":{
						"index":8
					}
				}
			},
			"name":"Pale_lancelot_oak_PBR",
			"pbrMetallicRoughness":{
				"baseColorTexture":{
					"index":9
				},
				"metallicFactor":0,
				"roughnessFactor":0.6000000238418579
			}
		}
	],
	"meshes":[
		{
			"name":"mesh.057",
			"primitives":[
				{
					"attributes":{
						"POSITION":0,
						"NORMAL":1
					},
					"indices":2,
					"material":0
				}
			]
		},
		{
			"name":"mesh.058",
			"primitives":[
				{
					"attributes":{
						"POSITION":3,
						"NORMAL":4,
						"TEXCOORD_0":5
					},
					"indices":6,
					"material":1
				}
			]
		},
		{
			"name":"Material2.233",
			"primitives":[
				{
					"attributes":{
						"POSITION":7,
						"NORMAL":8,
						"TEXCOORD_0":9
					},
					"indices":10,
					"material":0
				}
			]
		},
		{
			"name":"Material2.234",
			"primitives":[
				{
					"attributes":{
						"POSITION":11,
						"NORMAL":12,
						"TEXCOORD_0":13
					},
					"indices":14,
					"material":2
				}
			]
		},
		{
			"name":"Material2.239",
			"primitives":[
				{
					"attributes":{
						"POSITION":15,
						"NORMAL":16,
						"TEXCOORD_0":17
					},
					"indices":18,
					"material":3
				}
			]
		},
		{
			"name":"Material2.191",
			"primitives":[
				{
					"attributes":{
						"POSITION":19,
						"NORMAL":20,
						"TEXCOORD_0":21
					},
					"indices":22,
					"material":3
				}
			]
		},
		{
			"name":"Material2.324",
			"primitives":[
				{
					"attributes":{
						"POSITION":23,
						"NORMAL":24,
						"TEXCOORD_0":25
					},
					"indices":26,
					"material":4
				}
			]
		},
		{
			"name":"Material2.328",
			"primitives":[
				{
					"attributes":{
						"POSITION":27,
						"NORMAL":28,
						"TEXCOORD_0":29
					},
					"indices":30,
					"material":5
				}
			]
		},
		{
			"name":"Material2.172",
			"primitives":[
				{
					"attributes":{
						"POSITION":31,
						"NORMAL":32,
						"TEXCOORD_0":33
					},
					"indices":34,
					"material":2
				}
			]
		},
		{
			"name":"Material2.173",
			"primitives":[
				{
					"attributes":{
						"POSITION":35,
						"NORMAL":36
					},
					"indices":37,
					"material":6
				}
			]
		},
		{
			"name":"Material2.178",
			"primitives":[
				{
					"attributes":{
						"POSITION":38,
						"NORMAL":39,
						"TEXCOORD_0":40
					},
					"indices":41,
					"material":0
				}
			]
		},
		{
			"name":"Material2.482",
			"primitives":[
				{
					"attributes":{
						"POSITION":42,
						"NORMAL":43,
						"TEXCOORD_0":44
					},
					"indices":45,
					"material":7
				}
			]
		},
		{
			"name":"Material2.484",
			"primitives":[
				{
					"attributes":{
						"POSITION":46,
						"NORMAL":47
					},
					"indices":48,
					"material":6
				}
			]
		},
		{
			"name":"Material2.487",
			"primitives":[
				{
					"attributes":{
						"POSITION":49,
						"NORMAL":50,
						"TEXCOORD_0":51
					},
					"indices":52,
					"material":8
				}
			]
		},
		{
			"name":"Material2.488",
			"primitives":[
				{
					"attributes":{
						"POSITION":53,
						"NORMAL":54,
						"TEXCOORD_0":55
					},
					"indices":56,
					"material":8
				}
			]
		},
		{
			"name":"Material2.489",
			"primitives":[
				{
					"attributes":{
						"POSITION":57,
						"NORMAL":58,
						"TEXCOORD_0":59
					},
					"indices":60,
					"material":7
				}
			]
		}
	],
	"textures":[
		{
			"sampler":0,
			"source":0
		},
		{
			"sampler":0,
			"source":1
		},
		{
			"sampler":0,
			"source":2
		},
		{
			"sampler":0,
			"source":3
		},
		{
			"sampler":0,
			"source":4
		},
		{
			"sampler":0,
			"source":5
		},
		{
			"sampler":0,
			"source":6
		},
		{
			"sampler":0,
			"source":7
		},
		{
			"sampler":0,
			"source":6
		},
		{
			"sampler":0,
			"source":8
		}
	],
	"images":[
		{
			"mimeType":"image/png",
			"name":"material_specularf0",
			"uri":"material_specularf0.png"
		},
		{
			"mimeType":"image/jpeg",
			"name":"Plain_Natural_Blackout_baseColor",
			"uri":"Plain_Natural_Blackout_baseColor.jpg"
		},
		{
			"mimeType":"image/jpeg",
			"name":"material_47_baseColor",
			"uri":"material_47_baseColor.jpg"
		},
		{
			"mimeType":"image/png",
			"name":"Plain_Natural_Blackout_Sheer_baseColor",
			"uri":"Plain_Natural_Blackout_Sheer_baseColor.png"
		},
		{
			"mimeType":"image/jpeg",
			"name":"images",
			"uri":"images.jpg"
		},
		{
			"mimeType":"image/jpeg",
			"name":"Dense_Rattan_baseColor",
			"uri":"Dense_Rattan_baseColor.jpg"
		},
		{
			"mimeType":"image/png",
			"name":"Pale_lancelot_oak_PBR_specularf0",
			"uri":"Pale_lancelot_oak_PBR_specularf0.png"
		},
		{
			"mimeType":"image/jpeg",
			"name":"material_12_baseColor",
			"uri":"material_12_baseColor.jpg"
		},
		{
			"mimeType":"image/jpeg",
			"name":"Pale_lancelot_oak_PBR_baseColor",
			"uri":"Pale_lancelot_oak_PBR_baseColor.jpg"
		}
	],
	"accessors":[
		{
			"bufferView":0,
			"componentType":5126,
			"count":1553,
			"max":[
				1.0544999837875366,
				0.08289879560470581,
				0.7058345675468445
			],
			"min":[
				-0.7297765016555786,
				-0.14579139649868011,
				-1.1642240285873413
			],
			"type":"VEC3"
		},
		{
			"bufferView":1,
			"componentType":5126,
			"count":1553,
			"type":"VEC3"
		},
		{
			"bufferView":2,
			"componentType":5123,
			"count":9246,
			"type":"SCALAR"
		},
		{
			"bufferView":3,
			"componentType":5126,
			"count":1919,
			"max":[
				0.8601160049438477,
				0.18970979750156403,
				0.10963495820760727
			],
			"min":[
				-0.8600860834121704,
				-0.19531670212745667,
				-0.11120238155126572
			],
			"type":"VEC3"
		},
		{
			"bufferView":4,
			"componentType":5126,
			"count":1919,
			"type":"VEC3"
		},
		{
			"bufferView":5,
			"componentType":5126,
			"count":1919,
			"type":"VEC2"
		},
		{
			"bufferView":6,
			"componentType":5123,
			"count":8496,
			"type":"SCALAR"
		},
		{
			"bufferView":7,
			"componentType":5126,
			"count":6361,
			"max":[
				1.1344376802444458,
				0.10820222645998001,
				0.9974831938743591
			],
			"min":[
				-1.2470474243164062,
				-0.47070109844207764,
				-1.105313777923584
			],
			"type":"VEC3"
		},
		{
			"bufferView":8,
			"componentType":5126,
			"count":6361,
			"type":"VEC3"
		},
		{
			"bufferView":9,
			"componentType":5126,
			"count":6361,
			"type":"VEC2"
		},
		{
			"bufferView":10,
			"componentType":5123,
			"count":37404,
			"type":"SCALAR"
		},
		{
			"bufferView":11,
			"componentType":5126,
			"count":761,
			"max":[
				1.0046393871307373,
				1.1852296590805054,
				1.0530372858047485
			],
			"min":[
				-1.0336750745773315,
				-0.9794362187385559,
				-1.1116280555725098
			],
			"type":"VEC3"
		},
		{
			"bufferView":12,
			"componentType":5126,
			"count":761,
			"type":"VEC3"
		},
		{
			"bufferView":13,
			"componentType":5126,
			"count":761,
			"type":"VEC2"
		},
		{
			"bufferView":14,
			"componentType":5123,
			"count":1248,
			"type":"SCALAR"
		},
		{
			"bufferView":15,
			"componentType":5126,
			"count":168,
			"max":[
				0.8272963166236877,
				0.022071603685617447,
				0.873775064945221
			],
			"min":[
				-0.8272957801818848,
				-0.02743426337838173,
				-0.8737752437591553
			],
			"type":"VEC3"
		},
		{
			"bufferView":16,
			"componentType":5126,
			"count":168,
			"type":"VEC3"
		},
		{
			"bufferView":17,
			"componentType":5126,
			"count":168,
			"type":"VEC2"
		},
		{
			"bufferView":18,
			"componentType":5123,
			"count":294,
			"type":"SCALAR"
		},
		{
			"bufferView":19,
			"componentType":5126,
			"count":174,
			"max":[
				0.8272961974143982,
				0.02207149751484394,
				0.873775064945221
			],
			"min":[
				-0.8272958993911743,
				-0.027434369549155235,
				-0.8737752437591553
			],
			"type":"VEC3"
		},
		{
			"bufferView":20,
			"componentType":5126,
			"count":174,
			"type":"VEC3"
		},
		{
			"bufferView":21,
			"componentType":5126,
			"count":174,
			"type":"VEC2"
		},
		{
			"bufferView":22,
			"componentType":5123,
			"count":294,
			"type":"SCALAR"
		},
		{
			"bufferView":23,
			"componentType":5126,
			"count":52,
			"max":[
				1.4654735326766968,
				7.028913273643411e-07,
				1.4906492233276367
			],
			"min":[
				-1.4654724597930908,
				-7.028913273643411e-07,
				-1.4906492233276367
			],
			"type":"VEC3"
		},
		{
			"bufferView":24,
			"componentType":5126,
			"count":52,
			"type":"VEC3"
		},
		{
			"bufferView":25,
			"componentType":5126,
			"count":52,
			"type":"VEC2"
		},
		{
			"bufferView":26,
			"componentType":5123,
			"count":150,
			"type":"SCALAR"
		},
		{
			"bufferView":27,
			"componentType":5126,
			"count":1040,
			"max":[
				1.4864503145217896,
				0.004255982115864754,
				1.5056325197219849
			],
			"min":[
				-1.486450433731079,
				-0.0037869198713451624,
				-1.5056331157684326
			],
			"type":"VEC3"
		},
		{
			"bufferView":28,
			"componentType":5126,
			"count":1040,
			"type":"VEC3"
		},
		{
			"bufferView":29,
			"componentType":5126,
			"count":1040,
			"type":"VEC2"
		},
		{
			"bufferView":30,
			"componentType":5123,
			"count":1560,
			"type":"SCALAR"
		},
		{
			"bufferView":31,
			"componentType":5126,
			"count":79,
			"max":[
				0.5734798908233643,
				0.11345075815916061,
				0.258094847202301
			],
			"min":[
				-0.5360791683197021,
				-0.06971349567174911,
				-0.13737323880195618
			],
			"type":"VEC3"
		},
		{
			"bufferView":32,
			"componentType":5126,
			"count":79,
			"type":"VEC3"
		},
		{
			"bufferView":33,
			"componentType":5126,
			"count":79,
			"type":"VEC2"
		},
		{
			"bufferView":34,
			"componentType":5123,
			"count":138,
			"type":"SCALAR"
		},
		{
			"bufferView":35,
			"componentType":5126,
			"count":62,
			"max":[
				0.34178927540779114,
				0.0912780612707138,
				0.01110106986016035
			],
			"min":[
				-0.341788649559021,
				-0.0885554701089859,
				-0.005550556816160679
			],
			"type":"VEC3"
		},
		{
			"bufferView":36,
			"componentType":5126,
			"count":62,
			"type":"VEC3"
		},
		{
			"bufferView":37,
			"componentType":5123,
			"count":108,
			"type":"SCALAR"
		},
		{
			"bufferView":38,
			"componentType":5126,
			"count":104,
			"max":[
				0.8272961378097534,
				0.0248846597969532,
				0.8737745881080627
			],
			"min":[
				-0.8272960186004639,
				-0.025240106508135796,
				-0.8737751245498657
			],
			"type":"VEC3"
		},
		{
			"bufferView":39,
			"componentType":5126,
			"count":104,
			"type":"VEC3"
		},
		{
			"bufferView":40,
			"componentType":5126,
			"count":104,
			"type":"VEC2"
		},
		{
			"bufferView":41,
			"componentType":5123,
			"count":288,
			"type":"SCALAR"
		},
		{
			"bufferView":42,
			"componentType":5126,
			"count":32,
			"max":[
				0.8944646716117859,
				1.0157274007797241,
				0.004163025878369808
			],
			"min":[
				-0.8944646716117859,
				-0.9824246764183044,
				-0.004163042176514864
			],
			"type":"VEC3"
		},
		{
			"bufferView":43,
			"componentType":5126,
			"count":32,
			"type":"VEC3"
		},
		{
			"bufferView":44,
			"componentType":5126,
			"count":32,
			"type":"VEC2"
		},
		{
			"bufferView":45,
			"componentType":5123,
			"count":48,
			"type":"SCALAR"
		},
		{
			"bufferView":46,
			"componentType":5126,
			"count":1103,
			"max":[
				0.5661165118217468,
				0.5147138237953186,
				0.05178486183285713
			],
			"min":[
				-0.8759629726409912,
				-1.0431489944458008,
				-0.3811488151550293
			],
			"type":"VEC3"
		},
		{
			"bufferView":47,
			"componentType":5126,
			"count":1103,
			"type":"VEC3"
		},
		{
			"bufferView":48,
			"componentType":5123,
			"count":3516,
			"type":"SCALAR"
		},
		{
			"bufferView":49,
			"componentType":5126,
			"count":12436,
			"max":[
				2.33477783203125,
				0.2522178888320923,
				1.978471040725708
			],
			"min":[
				-2.41554594039917,
				-0.2671113610267639,
				-1.8112857341766357
			],
			"type":"VEC3"
		},
		{
			"bufferView":50,
			"componentType":5126,
			"count":12436,
			"type":"VEC3"
		},
		{
			"bufferView":51,
			"componentType":5126,
			"count":12436,
			"type":"VEC2"
		},
		{
			"bufferView":52,
			"componentType":5123,
			"count":37401,
			"type":"SCALAR"
		},
		{
			"bufferView":53,
			"componentType":5126,
			"count":930,
			"max":[
				2.226499557495117,
				1.759335994720459,
				0.30589616298675537
			],
			"min":[
				-2.856848955154419,
				-1.7476922273635864,
				-0.194606751203537
			],
			"type":"VEC3"
		},
		{
			"bufferView":54,
			"componentType":5126,
			"count":930,
			"type":"VEC3"
		},
		{
			"bufferView":55,
			"componentType":5126,
			"count":930,
			"type":"VEC2"
		},
		{
			"bufferView":56,
			"componentType":5123,
			"count":1545,
			"type":"SCALAR"
		},
		{
			"bufferView":57,
			"componentType":5126,
			"count":72,
			"max":[
				1.9517078399658203,
				0.8984711766242981,
				0.189299076795578
			],
			"min":[
				-1.2568031549453735,
				-0.7013876438140869,
				-0.0604705736041069
			],
			"type":"VEC3"
		},
		{
			"bufferView":58,
			"componentType":5126,
			"count":72,
			"type":"VEC3"
		},
		{
			"bufferView":59,
			"componentType":5126,
			"count":72,
			"type":"VEC2"
		},
		{
			"bufferView":60,
			"componentType":5123,
			"count":108,
			"type":"SCALAR"
		}
	],
	"bufferViews":[
		{
			"buffer":0,
			"byteLength":18636,
			"byteOffset":0,
			"target":34962
		},
		{
			"buffer":0,
			"byteLength":18636,
			"byteOffset":18636,
			"target":34962
		},
		{
			"buffer":0,
			"byteLength":18492,
			"byteOffset":37272,
			"target":34963
		},
		{
			"buffer":0,
			"byteLength":23028,
			"byteOffset":55764,
			"target":34962
		},
		{
			"buffer":0,
			"byteLength":23028,
			"byteOffset":78792,
			"target":34962
		},
		{
			"buffer":0,
			"byteLength":15352,
			"byteOffset":101820,
			"target":34962
		},
		{
			"buffer":0,
			"byteLength":16992,
			"byteOffset":117172,
			"target":34963
		},
		{
			"buffer":0,
			"byteLength":76332,
			"byteOffset":134164,
			"target":34962
		},
		{
			"buffer":0,
			"byteLength":76332,
			"byteOffset":210496,
			"target":34962
		},
		{
			"buffer":0,
			"byteLength":50888,
			"byteOffset":286828,
			"target":34962
		},
		{
			"buffer":0,
			"byteLength":74808,
			"byteOffset":337716,
			"target":34963
		},
		{
			"buffer":0,
			"byteLength":9132,
			"byteOffset":412524,
			"target":34962
		},
		{
			"buffer":0,
			"byteLength":9132,
			"byteOffset":421656,
			"target":34962
		},
		{
			"buffer":0,
			"byteLength":6088,
			"byteOffset":430788,
			"target":34962
		},
		{
			"buffer":0,
			"byteLength":2496,
			"byteOffset":436876,
			"target":34963
		},
		{
			"buffer":0,
			"byteLength":2016,
			"byteOffset":439372,
			"target":34962
		},
		{
			"buffer":0,
			"byteLength":2016,
			"byteOffset":441388,
			"target":34962
		},
		{
			"buffer":0,
			"byteLength":1344,
			"byteOffset":443404,
			"target":34962
		},
		{
			"buffer":0,
			"byteLength":588,
			"byteOffset":444748,
			"target":34963
		},
		{
			"buffer":0,
			"byteLength":2088,
			"byteOffset":445336,
			"target":34962
		},
		{
			"buffer":0,
			"byteLength":2088,
			"byteOffset":447424,
			"target":34962
		},
		{
			"buffer":0,
			"byteLength":1392,
			"byteOffset":449512,
			"target":34962
		},
		{
			"buffer":0,
			"byteLength":588,
			"byteOffset":450904,
			"target":34963
		},
		{
			"buffer":0,
			"byteLength":624,
			"byteOffset":451492,
			"target":34962
		},
		{
			"buffer":0,
			"byteLength":624,
			"byteOffset":452116,
			"target":34962
		},
		{
			"buffer":0,
			"byteLength":416,
			"byteOffset":452740,
			"target":34962
		},
		{
			"buffer":0,
			"byteLength":300,
			"byteOffset":453156,
			"target":34963
		},
		{
			"buffer":0,
			"byteLength":12480,
			"byteOffset":453456,
			"target":34962
		},
		{
			"buffer":0,
			"byteLength":12480,
			"byteOffset":465936,
			"target":34962
		},
		{
			"buffer":0,
			"byteLength":8320,
			"byteOffset":478416,
			"target":34962
		},
		{
			"buffer":0,
			"byteLength":3120,
			"byteOffset":486736,
			"target":34963
		},
		{
			"buffer":0,
			"byteLength":948,
			"byteOffset":489856,
			"target":34962
		},
		{
			"buffer":0,
			"byteLength":948,
			"byteOffset":490804,
			"target":34962
		},
		{
			"buffer":0,
			"byteLength":632,
			"byteOffset":491752,
			"target":34962
		},
		{
			"buffer":0,
			"byteLength":276,
			"byteOffset":492384,
			"target":34963
		},
		{
			"buffer":0,
			"byteLength":744,
			"byteOffset":492660,
			"target":34962
		},
		{
			"buffer":0,
			"byteLength":744,
			"byteOffset":493404,
			"target":34962
		},
		{
			"buffer":0,
			"byteLength":216,
			"byteOffset":494148,
			"target":34963
		},
		{
			"buffer":0,
			"byteLength":1248,
			"byteOffset":494364,
			"target":34962
		},
		{
			"buffer":0,
			"byteLength":1248,
			"byteOffset":495612,
			"target":34962
		},
		{
			"buffer":0,
			"byteLength":832,
			"byteOffset":496860,
			"target":34962
		},
		{
			"buffer":0,
			"byteLength":576,
			"byteOffset":497692,
			"target":34963
		},
		{
			"buffer":0,
			"byteLength":384,
			"byteOffset":498268,
			"target":34962
		},
		{
			"buffer":0,
			"byteLength":384,
			"byteOffset":498652,
			"target":34962
		},
		{
			"buffer":0,
			"byteLength":256,
			"byteOffset":499036,
			"target":34962
		},
		{
			"buffer":0,
			"byteLength":96,
			"byteOffset":499292,
			"target":34963
		},
		{
			"buffer":0,
			"byteLength":13236,
			"byteOffset":499388,
			"target":34962
		},
		{
			"buffer":0,
			"byteLength":13236,
			"byteOffset":512624,
			"target":34962
		},
		{
			"buffer":0,
			"byteLength":7032,
			"byteOffset":525860,
			"target":34963
		},
		{
			"buffer":0,
			"byteLength":149232,
			"byteOffset":532892,
			"target":34962
		},
		{
			"buffer":0,
			"byteLength":149232,
			"byteOffset":682124,
			"target":34962
		},
		{
			"buffer":0,
			"byteLength":99488,
			"byteOffset":831356,
			"target":34962
		},
		{
			"buffer":0,
			"byteLength":74802,
			"byteOffset":930844,
			"target":34963
		},
		{
			"buffer":0,
			"byteLength":11160,
			"byteOffset":1005648,
			"target":34962
		},
		{
			"buffer":0,
			"byteLength":11160,
			"byteOffset":1016808,
			"target":34962
		},
		{
			"buffer":0,
			"byteLength":7440,
			"byteOffset":1027968,
			"target":34962
		},
		{
			"buffer":0,
			"byteLength":3090,
			"byteOffset":1035408,
			"target":34963
		},
		{
			"buffer":0,
			"byteLength":864,
			"byteOffset":1038500,
			"target":34962
		},
		{
			"buffer":0,
			"byteLength":864,
			"byteOffset":1039364,
			"target":34962
		},
		{
			"buffer":0,
			"byteLength":576,
			"byteOffset":1040228,
			"target":34962
		},
		{
			"buffer":0,
			"byteLength":216,
			"byteOffset":1040804,
			"target":34963
		}
	],
	"samplers":[
		{
			"magFilter":9729,
			"minFilter":9987
		}
	],
	"buffers":[
		{
			"byteLength":1041020,
			"uri":"BedRoom.bin"
		}
	]
}
