{
	"asset":{
		"generator":"Khronos glTF Blender I/O v4.0.44",
		"version":"2.0"
	},
	"extensionsUsed":[
		"KHR_materials_specular"
	],
	"scene":0,
	"scenes":[
		{
			"name":"Scene",
			"nodes":[
				0
			]
		}
	],
	"nodes":[
		{
			"mesh":0,
			"name":"k-Self.0073333",
			"rotation":[
				-0.7071070671081543,
				0,
				0,
				0.7071065306663513
			],
			"scale":[
				0.0211471077054739,
				0.02114710956811905,
				0.02114710956811905
			],
			"translation":[
				20.479713439941406,
				2.6954762935638428,
				-21.879375457763672
			]
		}
	],
	"materials":[
		{
			"name":"16_Terrazzo_surface_PBR_texture-seamless.001",
			"pbrMetallicRoughness":{
				"baseColorTexture":{
					"index":0
				},
				"metallicFactor":0,
				"roughnessFactor":0.6000000238418579
			}
		},
		{
			"extensions":{
				"KHR_materials_specular":{
					"specularTexture":{
						"index":1
					}
				}
			},
			"name":"material.001",
			"pbrMetallicRoughness":{
				"metallicFactor":0,
				"roughnessFactor":0.6000000238418579
			}
		},
		{
			"alphaMode":"BLEND",
			"name":"Translucent_Glass_Gray.001",
			"pbrMetallicRoughness":{
				"baseColorFactor":[
					0,
					0,
					0,
					0.25
				],
				"metallicFactor":0,
				"roughnessFactor":0.20000000298023224
			}
		},
		{
			"name":"23_brushed_dark_steel_metal.001",
			"pbrMetallicRoughness":{
				"baseColorTexture":{
					"index":2
				},
				"metallicRoughnessTexture":{
					"index":3
				},
				"roughnessFactor":0.6000000238418579
			}
		},
		{
			"name":"31_brushed_copper_metal_texture-seamless.001",
			"pbrMetallicRoughness":{
				"baseColorTexture":{
					"index":4
				},
				"metallicFactor":0,
				"roughnessFactor":0.6000000238418579
			}
		},
		{
			"name":"brushed_aluminium.001",
			"pbrMetallicRoughness":{
				"baseColorTexture":{
					"index":5
				},
				"metallicFactor":0,
				"roughnessFactor":0.6000000238418579
			}
		},
		{
			"name":"31_brushed_copper_metal_texture-seamless_6.001",
			"pbrMetallicRoughness":{
				"baseColorTexture":{
					"index":6
				},
				"metallicFactor":0,
				"roughnessFactor":0.6000000238418579
			}
		},
		{
			"name":"sehpa_mermer__marble.001",
			"pbrMetallicRoughness":{
				"baseColorTexture":{
					"index":7
				},
				"metallicFactor":0.6000000238418579,
				"roughnessFactor":0.6000000238418579
			}
		},
		{
			"extensions":{
				"KHR_materials_specular":{
					"specularTexture":{
						"index":8
					}
				}
			},
			"name":"material_12.001",
			"pbrMetallicRoughness":{
				"baseColorTexture":{
					"index":9
				},
				"metallicFactor":0,
				"roughnessFactor":0.6000000238418579
			}
		}
	],
	"meshes":[
		{
			"name":"Material2.357",
			"primitives":[
				{
					"attributes":{
						"POSITION":0,
						"NORMAL":1,
						"TEXCOORD_0":2
					},
					"indices":3,
					"material":0
				},
				{
					"attributes":{
						"POSITION":4,
						"NORMAL":5,
						"TEXCOORD_0":6
					},
					"indices":7,
					"material":1
				},
				{
					"attributes":{
						"POSITION":8,
						"NORMAL":9,
						"TEXCOORD_0":10
					},
					"indices":11,
					"material":2
				},
				{
					"attributes":{
						"POSITION":12,
						"NORMAL":13,
						"TEXCOORD_0":14
					},
					"indices":15,
					"material":3
				},
				{
					"attributes":{
						"POSITION":16,
						"NORMAL":17,
						"TEXCOORD_0":18
					},
					"indices":19,
					"material":4
				},
				{
					"attributes":{
						"POSITION":20,
						"NORMAL":21,
						"TEXCOORD_0":22
					},
					"indices":23,
					"material":5
				},
				{
					"attributes":{
						"POSITION":24,
						"NORMAL":25,
						"TEXCOORD_0":26
					},
					"indices":27,
					"material":6
				},
				{
					"attributes":{
						"POSITION":28,
						"NORMAL":29,
						"TEXCOORD_0":30
					},
					"indices":31,
					"material":7
				},
				{
					"attributes":{
						"POSITION":32,
						"NORMAL":33,
						"TEXCOORD_0":34
					},
					"indices":35,
					"material":8
				}
			]
		}
	],
	"textures":[
		{
			"sampler":0,
			"source":0
		},
		{
			"sampler":0,
			"source":1
		},
		{
			"sampler":0,
			"source":2
		},
		{
			"sampler":0,
			"source":3
		},
		{
			"sampler":0,
			"source":4
		},
		{
			"sampler":0,
			"source":5
		},
		{
			"sampler":0,
			"source":6
		},
		{
			"sampler":0,
			"source":7
		},
		{
			"sampler":0,
			"source":8
		},
		{
			"sampler":0,
			"source":9
		}
	],
	"images":[
		{
			"mimeType":"image/jpeg",
			"name":"16_Terrazzo_surface_PBR_texture-seamless_baseColor",
			"uri":"16_Terrazzo_surface_PBR_texture-seamless_baseColor.jpg"
		},
		{
			"mimeType":"image/png",
			"name":"material_specularf0",
			"uri":"material_specularf0.png"
		},
		{
			"mimeType":"image/jpeg",
			"name":"23_brushed_dark_steel_metal_baseColor",
			"uri":"23_brushed_dark_steel_metal_baseColor.jpg"
		},
		{
			"mimeType":"image/png",
			"name":"23_brushed_dark_steel_metal_metallicRoughness",
			"uri":"23_brushed_dark_steel_metal_metallicRoughness.png"
		},
		{
			"mimeType":"image/jpeg",
			"name":"31_brushed_copper_metal_texture-seamless_baseColor",
			"uri":"31_brushed_copper_metal_texture-seamless_baseColor.jpg"
		},
		{
			"mimeType":"image/jpeg",
			"name":"brushed_aluminium_baseColor",
			"uri":"brushed_aluminium_baseColor.jpg"
		},
		{
			"mimeType":"image/jpeg",
			"name":"31_brushed_copper_metal_texture-seamless_6_baseColor",
			"uri":"31_brushed_copper_metal_texture-seamless_6_baseColor.jpg"
		},
		{
			"mimeType":"image/jpeg",
			"name":"sehpa_mermer__marble_baseColor",
			"uri":"sehpa_mermer__marble_baseColor.jpg"
		},
		{
			"mimeType":"image/png",
			"name":"Pale_lancelot_oak_PBR_specularf0",
			"uri":"Pale_lancelot_oak_PBR_specularf0.png"
		},
		{
			"mimeType":"image/jpeg",
			"name":"material_12_baseColor",
			"uri":"material_12_baseColor.jpg"
		}
	],
	"accessors":[
		{
			"bufferView":0,
			"componentType":5126,
			"count":8,
			"max":[
				52.54053497314453,
				15.843017578125,
				-0.6540670394897461
			],
			"min":[
				-70.15435028076172,
				15.44921875,
				-7.892928123474121
			],
			"type":"VEC3"
		},
		{
			"bufferView":1,
			"componentType":5126,
			"count":8,
			"type":"VEC3"
		},
		{
			"bufferView":2,
			"componentType":5126,
			"count":8,
			"type":"VEC2"
		},
		{
			"bufferView":3,
			"componentType":5123,
			"count":12,
			"type":"SCALAR"
		},
		{
			"bufferView":4,
			"componentType":5126,
			"count":1611,
			"max":[
				75.36359405517578,
				16.236572265625,
				61.512733459472656
			],
			"min":[
				-93.48027801513672,
				-8.3304443359375,
				-38.10283660888672
			],
			"type":"VEC3"
		},
		{
			"bufferView":5,
			"componentType":5126,
			"count":1611,
			"type":"VEC3"
		},
		{
			"bufferView":6,
			"componentType":5126,
			"count":1611,
			"type":"VEC2"
		},
		{
			"bufferView":7,
			"componentType":5123,
			"count":2820,
			"type":"SCALAR"
		},
		{
			"bufferView":8,
			"componentType":5126,
			"count":4,
			"max":[
				19.39380645751953,
				-6.40234375,
				-15.006606101989746
			],
			"min":[
				-7.280632019042969,
				-6.40234375,
				-30.572494506835938
			],
			"type":"VEC3"
		},
		{
			"bufferView":9,
			"componentType":5126,
			"count":4,
			"type":"VEC3"
		},
		{
			"bufferView":10,
			"componentType":5126,
			"count":4,
			"type":"VEC2"
		},
		{
			"bufferView":11,
			"componentType":5123,
			"count":6,
			"type":"SCALAR"
		},
		{
			"bufferView":12,
			"componentType":5126,
			"count":5179,
			"max":[
				56.41669464111328,
				16.0478515625,
				5.27816104888916
			],
			"min":[
				-73.96196746826172,
				-11.7891845703125,
				-40.70428466796875
			],
			"type":"VEC3"
		},
		{
			"bufferView":13,
			"componentType":5126,
			"count":5179,
			"type":"VEC3"
		},
		{
			"bufferView":14,
			"componentType":5126,
			"count":5179,
			"type":"VEC2"
		},
		{
			"bufferView":15,
			"componentType":5123,
			"count":11697,
			"type":"SCALAR"
		},
		{
			"bufferView":16,
			"componentType":5126,
			"count":2029,
			"max":[
				56.08637237548828,
				11.5196533203125,
				2.46480655670166
			],
			"min":[
				-73.63164520263672,
				-10.63433837890625,
				-29.850547790527344
			],
			"type":"VEC3"
		},
		{
			"bufferView":17,
			"componentType":5126,
			"count":2029,
			"type":"VEC3"
		},
		{
			"bufferView":18,
			"componentType":5126,
			"count":2029,
			"type":"VEC2"
		},
		{
			"bufferView":19,
			"componentType":5123,
			"count":3600,
			"type":"SCALAR"
		},
		{
			"bufferView":20,
			"componentType":5126,
			"count":1881,
			"max":[
				75.11957550048828,
				16.2366943359375,
				17.64899444580078
			],
			"min":[
				-92.66466522216797,
				-8.8883056640625,
				-38.10283660888672
			],
			"type":"VEC3"
		},
		{
			"bufferView":21,
			"componentType":5126,
			"count":1881,
			"type":"VEC3"
		},
		{
			"bufferView":22,
			"componentType":5126,
			"count":1881,
			"type":"VEC2"
		},
		{
			"bufferView":23,
			"componentType":5123,
			"count":3009,
			"type":"SCALAR"
		},
		{
			"bufferView":24,
			"componentType":5126,
			"count":1031,
			"max":[
				19.46796417236328,
				10.773681640625,
				-6.854392051696777
			],
			"min":[
				-8.026786804199219,
				-5.3253173828125,
				-7.611655235290527
			],
			"type":"VEC3"
		},
		{
			"bufferView":25,
			"componentType":5126,
			"count":1031,
			"type":"VEC3"
		},
		{
			"bufferView":26,
			"componentType":5126,
			"count":1031,
			"type":"VEC2"
		},
		{
			"bufferView":27,
			"componentType":5123,
			"count":1809,
			"type":"SCALAR"
		},
		{
			"bufferView":28,
			"componentType":5126,
			"count":222,
			"max":[
				75.36371612548828,
				16.2366943359375,
				61.512718200683594
			],
			"min":[
				-93.48021697998047,
				-8.330322265625,
				-40.849449157714844
			],
			"type":"VEC3"
		},
		{
			"bufferView":29,
			"componentType":5126,
			"count":222,
			"type":"VEC3"
		},
		{
			"bufferView":30,
			"componentType":5126,
			"count":222,
			"type":"VEC2"
		},
		{
			"bufferView":31,
			"componentType":5123,
			"count":396,
			"type":"SCALAR"
		},
		{
			"bufferView":32,
			"componentType":5126,
			"count":9858,
			"max":[
				76.66327667236328,
				16.23681640625,
				61.51274871826172
			],
			"min":[
				-95.02404022216797,
				-8.888427734375,
				-40.849456787109375
			],
			"type":"VEC3"
		},
		{
			"bufferView":33,
			"componentType":5126,
			"count":9858,
			"type":"VEC3"
		},
		{
			"bufferView":34,
			"componentType":5126,
			"count":9858,
			"type":"VEC2"
		},
		{
			"bufferView":35,
			"componentType":5123,
			"count":17076,
			"type":"SCALAR"
		}
	],
	"bufferViews":[
		{
			"buffer":0,
			"byteLength":96,
			"byteOffset":0,
			"target":34962
		},
		{
			"buffer":0,
			"byteLength":96,
			"byteOffset":96,
			"target":34962
		},
		{
			"buffer":0,
			"byteLength":64,
			"byteOffset":192,
			"target":34962
		},
		{
			"buffer":0,
			"byteLength":24,
			"byteOffset":256,
			"target":34963
		},
		{
			"buffer":0,
			"byteLength":19332,
			"byteOffset":280,
			"target":34962
		},
		{
			"buffer":0,
			"byteLength":19332,
			"byteOffset":19612,
			"target":34962
		},
		{
			"buffer":0,
			"byteLength":12888,
			"byteOffset":38944,
			"target":34962
		},
		{
			"buffer":0,
			"byteLength":5640,
			"byteOffset":51832,
			"target":34963
		},
		{
			"buffer":0,
			"byteLength":48,
			"byteOffset":57472,
			"target":34962
		},
		{
			"buffer":0,
			"byteLength":48,
			"byteOffset":57520,
			"target":34962
		},
		{
			"buffer":0,
			"byteLength":32,
			"byteOffset":57568,
			"target":34962
		},
		{
			"buffer":0,
			"byteLength":12,
			"byteOffset":57600,
			"target":34963
		},
		{
			"buffer":0,
			"byteLength":62148,
			"byteOffset":57612,
			"target":34962
		},
		{
			"buffer":0,
			"byteLength":62148,
			"byteOffset":119760,
			"target":34962
		},
		{
			"buffer":0,
			"byteLength":41432,
			"byteOffset":181908,
			"target":34962
		},
		{
			"buffer":0,
			"byteLength":23394,
			"byteOffset":223340,
			"target":34963
		},
		{
			"buffer":0,
			"byteLength":24348,
			"byteOffset":246736,
			"target":34962
		},
		{
			"buffer":0,
			"byteLength":24348,
			"byteOffset":271084,
			"target":34962
		},
		{
			"buffer":0,
			"byteLength":16232,
			"byteOffset":295432,
			"target":34962
		},
		{
			"buffer":0,
			"byteLength":7200,
			"byteOffset":311664,
			"target":34963
		},
		{
			"buffer":0,
			"byteLength":22572,
			"byteOffset":318864,
			"target":34962
		},
		{
			"buffer":0,
			"byteLength":22572,
			"byteOffset":341436,
			"target":34962
		},
		{
			"buffer":0,
			"byteLength":15048,
			"byteOffset":364008,
			"target":34962
		},
		{
			"buffer":0,
			"byteLength":6018,
			"byteOffset":379056,
			"target":34963
		},
		{
			"buffer":0,
			"byteLength":12372,
			"byteOffset":385076,
			"target":34962
		},
		{
			"buffer":0,
			"byteLength":12372,
			"byteOffset":397448,
			"target":34962
		},
		{
			"buffer":0,
			"byteLength":8248,
			"byteOffset":409820,
			"target":34962
		},
		{
			"buffer":0,
			"byteLength":3618,
			"byteOffset":418068,
			"target":34963
		},
		{
			"buffer":0,
			"byteLength":2664,
			"byteOffset":421688,
			"target":34962
		},
		{
			"buffer":0,
			"byteLength":2664,
			"byteOffset":424352,
			"target":34962
		},
		{
			"buffer":0,
			"byteLength":1776,
			"byteOffset":427016,
			"target":34962
		},
		{
			"buffer":0,
			"byteLength":792,
			"byteOffset":428792,
			"target":34963
		},
		{
			"buffer":0,
			"byteLength":118296,
			"byteOffset":429584,
			"target":34962
		},
		{
			"buffer":0,
			"byteLength":118296,
			"byteOffset":547880,
			"target":34962
		},
		{
			"buffer":0,
			"byteLength":78864,
			"byteOffset":666176,
			"target":34962
		},
		{
			"buffer":0,
			"byteLength":34152,
			"byteOffset":745040,
			"target":34963
		}
	],
	"samplers":[
		{
			"magFilter":9729,
			"minFilter":9987
		}
	],
	"buffers":[
		{
			"byteLength":779192,
			"uri":"kitchen_2.bin"
		}
	]
}
