{
	"asset":{
		"generator":"Khronos glTF Blender I/O v4.0.44",
		"version":"2.0"
	},
	"extensionsUsed":[
		"KHR_materials_specular"
	],
	"scene":0,
	"scenes":[
		{
			"name":"Scene",
			"nodes":[
				0
			]
		}
	],
	"nodes":[
		{
			"mesh":0,
			"name":"Material2.173",
			"translation":[
				20.686397552490234,
				4.933383464813232,
				-18.6428279876709
			]
		}
	],
	"materials":[
		{
			"extensions":{
				"KHR_materials_specular":{
					"specularTexture":{
						"index":0
					}
				}
			},
			"name":"material_12",
			"pbrMetallicRoughness":{
				"baseColorTexture":{
					"index":1
				},
				"metallicFactor":0,
				"roughnessFactor":0.6000000238418579
			}
		},
		{
			"extensions":{
				"KHR_materials_specular":{
					"specularTexture":{
						"index":2
					}
				}
			},
			"name":"material",
			"pbrMetallicRoughness":{
				"metallicFactor":0,
				"roughnessFactor":0.6000000238418579
			}
		},
		{
			"name":"Color_008",
			"pbrMetallicRoughness":{
				"baseColorFactor":[
					0.11764699965715408,
					0.11764699965715408,
					0.11764699965715408,
					1
				],
				"metallicFactor":0,
				"roughnessFactor":0.6000000238418579
			}
		},
		{
			"name":"material_15_19",
			"pbrMetallicRoughness":{
				"baseColorTexture":{
					"index":3
				},
				"metallicFactor":0,
				"roughnessFactor":0.6000000238418579
			}
		}
	],
	"meshes":[
		{
			"name":"Material2.375",
			"primitives":[
				{
					"attributes":{
						"POSITION":0,
						"NORMAL":1,
						"TEXCOORD_0":2
					},
					"indices":3,
					"material":0
				},
				{
					"attributes":{
						"POSITION":4,
						"NORMAL":5,
						"TEXCOORD_0":6
					},
					"indices":7,
					"material":1
				},
				{
					"attributes":{
						"POSITION":8,
						"NORMAL":9,
						"TEXCOORD_0":10
					},
					"indices":11,
					"material":2
				},
				{
					"attributes":{
						"POSITION":12,
						"NORMAL":13,
						"TEXCOORD_0":14
					},
					"indices":15,
					"material":3
				}
			]
		}
	],
	"textures":[
		{
			"sampler":0,
			"source":0
		},
		{
			"sampler":0,
			"source":1
		},
		{
			"sampler":0,
			"source":2
		},
		{
			"sampler":0,
			"source":3
		}
	],
	"images":[
		{
			"mimeType":"image/png",
			"name":"Pale_lancelot_oak_PBR_specularf0",
			"uri":"Pale_lancelot_oak_PBR_specularf0.png"
		},
		{
			"mimeType":"image/jpeg",
			"name":"material_12_baseColor",
			"uri":"material_12_baseColor.jpg"
		},
		{
			"mimeType":"image/png",
			"name":"material_specularf0",
			"uri":"material_specularf0.png"
		},
		{
			"mimeType":"image/jpeg",
			"name":"material_15_19_baseColor",
			"uri":"material_15_19_baseColor.jpg"
		}
	],
	"accessors":[
		{
			"bufferView":0,
			"componentType":5126,
			"count":944,
			"max":[
				1.4060134887695312,
				1.9896140098571777,
				0.10797428339719772
			],
			"min":[
				-1.4071751832962036,
				-0.3119036853313446,
				-0.2030511200428009
			],
			"type":"VEC3"
		},
		{
			"bufferView":1,
			"componentType":5126,
			"count":944,
			"type":"VEC3"
		},
		{
			"bufferView":2,
			"componentType":5126,
			"count":944,
			"type":"VEC2"
		},
		{
			"bufferView":3,
			"componentType":5123,
			"count":1476,
			"type":"SCALAR"
		},
		{
			"bufferView":4,
			"componentType":5126,
			"count":18630,
			"max":[
				1.4137632846832275,
				1.512263536453247,
				1.7483246326446533
			],
			"min":[
				-1.4137071371078491,
				-0.43755388259887695,
				-0.19136092066764832
			],
			"type":"VEC3"
		},
		{
			"bufferView":5,
			"componentType":5126,
			"count":18630,
			"type":"VEC3"
		},
		{
			"bufferView":6,
			"componentType":5126,
			"count":18630,
			"type":"VEC2"
		},
		{
			"bufferView":7,
			"componentType":5123,
			"count":67155,
			"type":"SCALAR"
		},
		{
			"bufferView":8,
			"componentType":5126,
			"count":87157,
			"max":[
				1.4145196676254272,
				2.34450626373291,
				0.022269487380981445
			],
			"min":[
				-1.4155503511428833,
				-0.4385167360305786,
				-0.19137123227119446
			],
			"type":"VEC3"
		},
		{
			"bufferView":9,
			"componentType":5126,
			"count":87157,
			"type":"VEC3"
		},
		{
			"bufferView":10,
			"componentType":5126,
			"count":87157,
			"type":"VEC2"
		},
		{
			"bufferView":11,
			"componentType":5125,
			"count":148671,
			"type":"SCALAR"
		},
		{
			"bufferView":12,
			"componentType":5126,
			"count":8424,
			"max":[
				1.3641455173492432,
				2.275874137878418,
				0.006331726908683777
			],
			"min":[
				-1.406524419784546,
				0.3119041919708252,
				-0.2746163010597229
			],
			"type":"VEC3"
		},
		{
			"bufferView":13,
			"componentType":5126,
			"count":8424,
			"type":"VEC3"
		},
		{
			"bufferView":14,
			"componentType":5126,
			"count":8424,
			"type":"VEC2"
		},
		{
			"bufferView":15,
			"componentType":5123,
			"count":15039,
			"type":"SCALAR"
		}
	],
	"bufferViews":[
		{
			"buffer":0,
			"byteLength":11328,
			"byteOffset":0,
			"target":34962
		},
		{
			"buffer":0,
			"byteLength":11328,
			"byteOffset":11328,
			"target":34962
		},
		{
			"buffer":0,
			"byteLength":7552,
			"byteOffset":22656,
			"target":34962
		},
		{
			"buffer":0,
			"byteLength":2952,
			"byteOffset":30208,
			"target":34963
		},
		{
			"buffer":0,
			"byteLength":223560,
			"byteOffset":33160,
			"target":34962
		},
		{
			"buffer":0,
			"byteLength":223560,
			"byteOffset":256720,
			"target":34962
		},
		{
			"buffer":0,
			"byteLength":149040,
			"byteOffset":480280,
			"target":34962
		},
		{
			"buffer":0,
			"byteLength":134310,
			"byteOffset":629320,
			"target":34963
		},
		{
			"buffer":0,
			"byteLength":1045884,
			"byteOffset":763632,
			"target":34962
		},
		{
			"buffer":0,
			"byteLength":1045884,
			"byteOffset":1809516,
			"target":34962
		},
		{
			"buffer":0,
			"byteLength":697256,
			"byteOffset":2855400,
			"target":34962
		},
		{
			"buffer":0,
			"byteLength":594684,
			"byteOffset":3552656,
			"target":34963
		},
		{
			"buffer":0,
			"byteLength":101088,
			"byteOffset":4147340,
			"target":34962
		},
		{
			"buffer":0,
			"byteLength":101088,
			"byteOffset":4248428,
			"target":34962
		},
		{
			"buffer":0,
			"byteLength":67392,
			"byteOffset":4349516,
			"target":34962
		},
		{
			"buffer":0,
			"byteLength":30078,
			"byteOffset":4416908,
			"target":34963
		}
	],
	"samplers":[
		{
			"magFilter":9729,
			"minFilter":9987
		}
	],
	"buffers":[
		{
			"byteLength":4446988,
			"uri":"studyArea_2.bin"
		}
	]
}
